<svg width="1992" height="501" viewBox="0 0 1992 501" fill="none" xmlns="http://www.w3.org/2000/svg">
<g clip-path="url(#clip0_1332_2)">
<path d="M1708.66 501C1664.64 501 1632.62 486.979 1612.61 458.937C1592.6 430.895 1586.6 390.585 1594.6 338.006L1624.62 150.976C1632.62 99.3988 1648.63 61.3418 1672.65 36.8051C1696.66 12.2684 1730.93 0 1775.45 0C1819.47 0 1851.74 14.021 1872.25 42.063C1892.76 69.6042 1898.77 110.165 1890.26 163.745L1861 350.024C1852.49 401.601 1835.98 439.658 1811.47 464.195C1787.46 488.732 1753.19 501 1708.66 501ZM1716.92 429.643C1736.93 429.643 1752.19 423.384 1762.69 410.865C1773.2 397.846 1780.7 376.814 1785.21 347.771L1815.22 162.243C1820.22 130.696 1818.72 107.661 1810.72 93.1395C1803.21 78.6177 1788.96 71.3568 1767.95 71.3568C1748.44 71.3568 1733.43 77.8665 1722.92 90.886C1712.42 103.405 1704.66 124.436 1699.66 153.981L1669.64 338.757C1664.64 370.304 1666.14 393.339 1674.15 407.861C1682.15 422.382 1696.41 429.643 1716.92 429.643Z" fill="#D65D12"/>
<path d="M1289.53 496.493C1283.52 496.493 1281.02 493.739 1282.02 488.231L1357.06 12.7691C1358.56 7.26086 1361.57 4.50674 1366.07 4.50674H1450.11C1495.64 4.50674 1528.4 14.021 1548.41 33.0495C1568.93 52.0779 1579.18 82.1229 1579.18 123.184C1579.18 146.219 1575.93 168.252 1569.43 189.283C1563.42 210.315 1554.17 228.592 1541.66 244.115C1529.15 259.639 1513.9 271.156 1495.89 278.667V279.418L1539.41 488.231C1540.41 490.234 1539.91 492.237 1537.91 494.24C1536.41 495.742 1534.41 496.493 1531.91 496.493H1468.87C1464.37 496.493 1461.62 493.739 1460.62 488.231L1424.6 295.943H1387.83L1357.06 488.231C1356.56 493.739 1353.81 496.493 1348.81 496.493H1289.53ZM1398.34 229.093H1425.35C1442.86 229.093 1457.37 224.837 1468.87 216.324C1480.38 207.31 1488.63 195.292 1493.64 180.27C1499.14 164.747 1501.89 147.471 1501.89 128.442C1501.89 109.414 1497.39 95.8936 1488.38 87.8815C1479.88 79.3688 1466.37 75.1124 1447.86 75.1124H1423.1L1398.34 229.093Z" fill="#D65D12"/>
<path d="M1022.79 496.493C1016.78 496.493 1014.28 493.739 1015.28 488.231L1090.32 12.7691C1091.82 7.26086 1094.82 4.50674 1099.33 4.50674H1292.18C1298.18 4.50674 1300.68 7.26086 1299.68 12.7691L1290.68 66.8501C1289.68 72.3583 1286.92 75.1124 1282.42 75.1124H1156.36L1135.34 213.319H1247.9C1253.91 213.319 1256.41 216.073 1255.41 221.582L1247.15 272.658C1246.15 278.166 1243.4 280.921 1238.9 280.921H1124.09L1101.58 425.888H1225.39C1231.4 425.888 1233.9 428.642 1232.9 434.15L1223.89 488.231C1223.39 493.739 1220.64 496.493 1215.64 496.493H1022.79Z" fill="#D65D12"/>
<path d="M721.601 496.493C715.598 496.493 713.096 493.739 714.097 488.231L789.136 12.7691C790.637 7.26086 793.639 4.50674 798.141 4.50674H882.185C927.71 4.50674 960.477 14.021 980.487 33.0495C1001 52.0779 1011.25 82.1229 1011.25 123.184C1011.25 146.219 1008 168.252 1001.5 189.283C995.495 210.315 986.24 228.592 973.734 244.115C961.227 259.639 945.969 271.156 927.96 278.667V279.418L971.483 488.231C972.483 490.234 971.983 492.237 969.982 494.24C968.481 495.742 966.48 496.493 963.979 496.493H900.945C896.443 496.493 893.692 493.739 892.691 488.231L856.672 295.943H819.903L789.136 488.231C788.636 493.739 785.885 496.493 780.882 496.493H721.601ZM830.408 229.093H857.422C874.932 229.093 889.439 224.837 900.945 216.324C912.452 207.31 920.706 195.292 925.709 180.27C931.211 164.747 933.963 147.471 933.963 128.442C933.963 109.414 929.46 95.8936 920.456 87.8815C911.951 79.3688 898.444 75.1124 879.934 75.1124H855.171L830.408 229.093Z" fill="#D65D12"/>
<path d="M527.377 501C483.354 501 451.337 486.979 431.326 458.937C411.316 430.895 405.313 390.585 413.317 338.006L443.333 150.976C451.337 99.3988 467.345 61.3418 491.358 36.8051C515.371 12.2684 549.639 0 594.162 0C638.185 0 670.453 14.021 690.963 42.063C711.474 69.6042 717.478 110.165 708.973 163.745L679.707 350.024C671.203 401.601 654.694 439.658 630.181 464.195C606.169 488.732 571.901 501 527.377 501ZM535.631 429.643C555.642 429.643 570.9 423.384 581.406 410.865C591.911 397.846 599.415 376.814 603.917 347.771L633.933 162.243C638.936 130.696 637.435 107.661 629.431 93.1395C621.927 78.6177 607.669 71.3568 586.658 71.3568C567.148 71.3568 552.14 77.8665 541.635 90.886C531.129 103.405 523.375 124.436 518.372 153.981L488.356 338.757C483.354 370.304 484.855 393.339 492.859 407.861C500.863 422.382 515.121 429.643 535.631 429.643Z" fill="#D65D12"/>
<path d="M8.45447 496.493C1.95103 496.493 -0.800423 493.739 0.200106 488.231L81.9933 12.7691C82.9938 7.26086 85.9954 4.50674 90.9981 4.50674H169.79C174.792 4.50674 177.544 7.26086 178.044 12.7691L202.807 273.409L310.864 12.7691C313.366 7.26086 316.367 4.50674 319.869 4.50674H399.411C404.914 4.50674 407.415 7.26086 406.915 12.7691L337.878 488.231C336.878 493.739 334.126 496.493 329.624 496.493H270.343C264.34 496.493 261.838 493.739 262.839 488.231L298.858 244.115C300.859 233.099 302.86 220.831 304.861 207.31C307.362 193.79 310.114 180.019 313.115 165.998C316.117 151.477 318.868 138.207 321.37 126.189H319.869C313.866 142.213 307.362 158.237 300.359 174.261C293.855 189.784 286.852 205.307 279.348 220.831L187.049 427.39C185.048 431.396 182.296 433.399 178.794 433.399H176.543C173.041 433.399 171.04 431.396 170.54 427.39L144.276 221.582C142.275 206.559 140.274 191.036 138.273 175.012C136.772 158.487 135.271 142.213 133.771 126.189H132.27C130.769 144.717 128.518 163.996 125.516 184.026C123.015 203.555 120.264 223.334 117.262 243.364L75.9901 488.231C74.9896 493.739 71.988 496.493 66.9854 496.493H8.45447Z" fill="#D65D12"/>
<path d="M1470.73 231.096H1643.32V298.697H1470.73V231.096Z" fill="#D65D12"/>
<path d="M632.784 231.096H805.375V298.697H632.784V231.096Z" fill="#D65D12"/>
<path d="M315.116 231.096H487.708V298.697H315.116V231.096Z" fill="#D65D12"/>
<path d="M907.93 428.892H1080.52V496.493H907.93V428.892Z" fill="#D65D12"/>
<path d="M1100.53 5.75863H1403.19V75.8636H1100.53V5.75863Z" fill="#D65D12"/>
<path d="M1403.19 5.75863V75.8636H1100.53V5.75863H1403.19ZM1103.03 73.3598H1400.69V8.26238H1103.03V73.3598Z" fill="#D65D12"/>
<path d="M1948.77 40C1948.47 40 1948.32 39.808 1948.32 39.424V2.112H1941.6C1941.26 2.112 1941.09 1.92 1941.09 1.536V-1.344C1941.09 -1.728 1941.26 -1.92 1941.6 -1.92H1959.2C1959.5 -1.92 1959.65 -1.728 1959.65 -1.344V1.536C1959.65 1.92 1959.5 2.112 1959.2 2.112H1952.48V39.424C1952.48 39.808 1952.31 40 1951.97 40H1948.77ZM1963.95 40C1963.69 40 1963.57 39.808 1963.57 39.424L1964.08 -1.344C1964.08 -1.728 1964.25 -1.92 1964.59 -1.92H1969.58C1969.92 -1.92 1970.12 -1.77067 1970.16 -1.472L1976.24 23.552L1982.38 -1.472C1982.42 -1.77067 1982.62 -1.92 1982.96 -1.92H1987.95C1988.25 -1.92 1988.4 -1.728 1988.4 -1.344L1988.97 39.424C1988.97 39.808 1988.82 40 1988.53 40H1985.33C1984.98 40 1984.81 39.808 1984.81 39.424L1984.56 12.544C1984.56 11.3067 1984.56 9.94133 1984.56 8.448C1984.56 6.95467 1984.58 5.52533 1984.62 4.16H1984.56C1984.3 5.48266 1984 6.80533 1983.66 8.128C1983.32 9.45067 1982.98 10.752 1982.64 12.032L1976.94 33.664C1976.9 33.9627 1976.71 34.112 1976.37 34.112H1976.11C1975.81 34.112 1975.64 33.9627 1975.6 33.664L1969.77 11.968C1969.43 10.688 1969.11 9.408 1968.81 8.128C1968.52 6.80533 1968.24 5.48266 1967.98 4.16H1967.85C1967.94 5.52533 1967.98 6.95467 1967.98 8.448C1967.98 9.89867 1967.98 11.2427 1967.98 12.48L1967.66 39.424C1967.66 39.808 1967.51 40 1967.21 40H1963.95Z" fill="#D65D12"/>
</g>
<defs>
<clipPath id="clip0_1332_2">
<rect width="1992" height="501" fill="white"/>
</clipPath>
</defs>
</svg>
